<?xml version="1.0" standalone="no"?>
<!DOCTYPE svg PUBLIC "-//W3C//DTD SVG 20010904//EN"
 "http://www.w3.org/TR/2001/REC-SVG-20010904/DTD/svg10.dtd">
<svg 
  version="1.0" 
  xmlns="http://www.w3.org/2000/svg"
  width="40.000000pt" height="40.000000pt" 
  viewBox="0 0 1200.000000 1200.000000"
  preserveAspectRatio="xMidYMid meet"
>

  <g transform="translate(0.000000,1200.000000) scale(0.100000,-0.100000)"
  fill="#000000" stroke="none">
  <path d="M5695 10689 c-818 -54 -1612 -324 -2300 -782 -681 -454 -1226 -1071
  -1594 -1807 -438 -875 -591 -1838 -446 -2810 166 -1119 755 -2168 1625 -2896
  1015 -849 2321 -1232 3630 -1063 1338 172 2539 915 3298 2039 234 346 442 775
  571 1172 273 843 302 1744 85 2613 -148 592 -438 1191 -815 1685 -502 659
  -1169 1176 -1926 1494 -663 277 -1409 402 -2128 355z m767 -1668 c1285 -200
  2310 -1186 2548 -2450 49 -260 65 -626 40 -881 -150 -1501 -1391 -2682 -2890
  -2748 -906 -41 -1738 289 -2359 934 -438 454 -720 1023 -822 1659 -30 187 -38
  595 -15 795 67 579 275 1087 640 1560 104 135 371 402 506 506 489 378 974
  572 1620 648 19 2 161 3 315 1 226 -2 306 -7 417 -24z"/>
  <path d="M5875 6979 c-98 -13 -96 -11 -89 -62 4 -27 2 -53 -6 -66 -13 -25 -66
  -51 -102 -51 -13 0 -29 -9 -36 -20 -15 -24 -68 -27 -99 -5 -20 14 -23 14 -33
  -5 -22 -42 -98 -63 -143 -39 -19 11 -28 5 -89 -60 -173 -185 -261 -411 -261
  -671 0 -275 94 -502 287 -696 194 -193 421 -287 696 -287 275 0 502 94 696
  287 101 102 168 202 220 330 l35 86 -22 30 c-26 34 -32 36 -49 15 -7 -8 -28
  -15 -48 -15 -29 0 -43 8 -78 45 -28 31 -50 45 -67 45 -34 0 -57 25 -57 61 0
  48 67 97 115 85 15 -4 30 4 54 29 18 19 39 35 47 35 7 0 23 18 34 39 18 36 56
  75 82 83 15 5 -13 119 -53 212 -97 229 -296 428 -518 521 -99 41 -177 62 -281
  75 -96 11 -135 11 -235 -1z m322 -216 c12 -8 30 -34 40 -59 15 -37 21 -44 38
  -38 11 4 35 7 54 7 37 0 71 -30 71 -64 0 -13 7 -19 25 -19 73 0 119 -76 85
  -141 -13 -23 -61 -49 -93 -49 -13 0 -32 -9 -42 -20 -22 -24 -71 -26 -102 -5
  -19 13 -22 13 -37 -10 -40 -62 -127 -64 -177 -6 -23 28 -27 30 -45 16 -10 -8
  -32 -15 -48 -15 -29 0 -96 35 -96 50 0 18 -33 40 -59 40 -15 0 -32 5 -39 12
  -13 13 -16 56 -6 83 10 25 78 56 111 49 24 -5 31 -1 42 20 8 13 27 30 43 37
  16 7 37 28 47 48 43 84 118 109 188 64z m-765 -594 c40 -11 88 -67 88 -102 0
  -14 4 -17 18 -12 34 16 82 17 99 4 9 -8 22 -29 30 -46 11 -26 19 -33 42 -33
  16 0 39 -8 51 -18 26 -21 38 -89 20 -121 -13 -25 -66 -51 -102 -51 -13 0 -29
  -9 -36 -20 -15 -24 -68 -27 -99 -5 -20 14 -23 14 -33 -5 -6 -11 -24 -27 -40
  -35 -54 -28 -105 -16 -147 33 -21 25 -23 25 -41 9 -10 -9 -34 -17 -52 -17 -27
  0 -42 9 -76 45 -28 31 -50 45 -67 45 -34 0 -57 25 -57 61 0 48 67 97 115 85
  15 -4 30 4 54 29 18 19 39 35 47 35 7 0 22 17 33 38 22 43 46 67 81 81 32 13
  29 13 72 0z m765 -416 c12 -8 30 -34 40 -59 15 -37 21 -44 38 -38 11 4 35 7
  54 7 37 0 71 -30 71 -64 0 -13 7 -19 25 -19 73 0 119 -76 85 -141 -13 -23 -61
  -49 -93 -49 -13 0 -32 -9 -42 -20 -22 -24 -71 -26 -102 -5 -19 13 -22 13 -37
  -10 -40 -62 -127 -64 -177 -6 -23 28 -27 30 -45 16 -10 -8 -32 -15 -48 -15
  -29 0 -96 35 -96 50 0 18 -33 40 -59 40 -15 0 -32 5 -39 12 -13 13 -16 56 -6
  83 10 25 78 56 111 49 24 -5 31 -1 42 20 8 13 27 30 43 37 16 7 37 28 47 48
  43 84 118 109 188 64z"/>
  </g>
</svg>
